<svg id="图层_1" data-name="图层 1" xmlns="http://www.w3.org/2000/svg" viewBox="0 0 391.86 492.51"><defs><style>.cls-1{fill:#040000;}</style></defs><title>未标题-1</title><path class="cls-1" d="M421,51.75A11.19,11.19,0,0,0,409.8,63v67.19a11.2,11.2,0,1,0,22.4,0V63A11.2,11.2,0,0,0,421,51.75Zm-162.4,58.1a11.06,11.06,0,0,0-7.87,3.32,11.3,11.3,0,0,0,0,15.93l47.6,47.42a11.14,11.14,0,0,0,15.75-15.75l-47.43-47.6a11.49,11.49,0,0,0-8-3.32Zm324.8,0a11.49,11.49,0,0,0-8,3.32l-47.43,47.6a11.14,11.14,0,0,0,15.75,15.75l47.61-47.42a11.32,11.32,0,0,0,0-15.93,11.1,11.1,0,0,0-7.88-3.32ZM299.9,213.1,227.1,313.9a11.55,11.55,0,0,0,.7,14L412.6,540.7c4.19,4.75,12.61,4.75,16.8,0L614.2,327.9a11.55,11.55,0,0,0,.7-14L542.1,213.1a11.39,11.39,0,0,0-9.1-4.55H309a10.83,10.83,0,0,0-9.11,4.55Zm25,17.85h73.85l-49.35,67Zm118.3,0h73.85l-24.5,67ZM421,238.83l52.14,70.52H369ZM305.68,243.2l24.15,66.15H257.9Zm230.65,0,47.77,66.15H512.17ZM260.71,331.75h77.17l55.65,153Zm101,0H480.51L421,495Zm142.45,0h77.17l-132.82,153Z" transform="translate(-225.07 -51.75)"/></svg>
